# xmcd CD database file
#
# Track frame offsets:
#	150
#	63825
#	97474
#	128466
#	161635
#	205225
#	235757
#
# Disc length: 3933 seconds
#
# Revision: 0
# Processed by: cddbd v1.5.2PL0 Copyright (c) Steve Scherf et al.
# Submitted via: CDex 1.70beta2
#
DISCID=5a0f5b07
DTITLE=New Age - Ananda Khanda
DYEAR=1997
DGENRE=New Age
TTITLE0=Ananda Khanda
TTITLE1=Ishq Allah
TTITLE2=Sunrise
TTITLE3=Om Tare
TTITLE4=River
TTITLE5=Jaya Mata
TTITLE6=Om Namaha Shivaya
EXTD=YEAR: 1997
EXTT0=
EXTT1=
EXTT2=
EXTT3=
EXTT4=
EXTT5=
EXTT6=
PLAYORDER=
